HIERARCHY
ROOT Hips
{
 OFFSET 0.000000 0.000000 0.000000
 CHANNELS 6 Xposition Yposition Zposition Yrotation Xrotation Zrotation
 JOINT Chest
 {
  OFFSET 0.000000 9.585900 0.002600
  CHANNELS 3 Yrotation Xrotation Zrotation
  JOINT Chest2
  {
   OFFSET 0.000000 9.601200 -0.005300
   CHANNELS 3 Yrotation Xrotation Zrotation
   JOINT Chest3
   {
    OFFSET 0.000000 9.561800 0.000000
    CHANNELS 3 Yrotation Xrotation Zrotation
    JOINT Chest4
    {
     OFFSET 0.000000 9.552100 0.000000
     CHANNELS 3 Yrotation Xrotation Zrotation
     JOINT Neck
     {
      OFFSET 0.000000 14.453000 0.000000
      CHANNELS 3 Yrotation Xrotation Zrotation
      JOINT Head
      {
       OFFSET 0.000000 8.936500 -0.011300
       CHANNELS 3 Yrotation Xrotation Zrotation
       End Site
       {
        OFFSET 0.000000 17.073600 -0.006000
       }
      }
     }
     JOINT RightCollar
     {
      OFFSET -2.921100 9.558500 0.000000
      CHANNELS 3 Yrotation Xrotation Zrotation
      JOINT RightShoulder
      {
       OFFSET -13.519700 0.000000 0.000000
       CHANNELS 3 Yrotation Xrotation Zrotation
       JOINT RightElbow
       {
        OFFSET 0.000000 -29.696600 0.000000
        CHANNELS 3 Yrotation Xrotation Zrotation
        JOINT RightWrist
        {
         OFFSET 0.000000 -24.004700 0.000000
         CHANNELS 3 Yrotation Xrotation Zrotation
         End Site
         {
          OFFSET 0.000000 -17.728500 0.000000
         }
        }
       }
      }
     }
     JOINT LeftCollar
     {
      OFFSET 2.921100 9.558500 0.000000
      CHANNELS 3 Yrotation Xrotation Zrotation
      JOINT LeftShoulder
      {
       OFFSET 13.519700 0.000000 0.000000
       CHANNELS 3 Yrotation Xrotation Zrotation
       JOINT LeftElbow
       {
        OFFSET 0.000000 -29.696600 0.000000
        CHANNELS 3 Yrotation Xrotation Zrotation
        JOINT LeftWrist
        {
         OFFSET 0.000000 -24.004700 0.000000
         CHANNELS 3 Yrotation Xrotation Zrotation
         End Site
         {
          OFFSET 0.000000 -17.728500 0.000000
         }
        }
       }
      }
     }
    }
   }
  }
 }
 JOINT RightHip
 {
  OFFSET -7.771700 -0.012900 -0.001300
  CHANNELS 3 Yrotation Xrotation Zrotation
  JOINT RightKnee
  {
   OFFSET 0.000000 -40.869800 0.001200
   CHANNELS 3 Yrotation Xrotation Zrotation
   JOINT RightAnkle
   {
    OFFSET 0.000000 -39.717900 0.002100
    CHANNELS 3 Yrotation Xrotation Zrotation
    JOINT RightToe
    {
     OFFSET 0.000000 -4.965400 11.033500
     CHANNELS 3 Yrotation Xrotation Zrotation
     End Site
     {
      OFFSET 0.000000 -1.423100 5.872300
     }
    }
   }
  }
 }
 JOINT LeftHip
 {
  OFFSET 7.771700 -0.012900 -0.001300
  CHANNELS 3 Yrotation Xrotation Zrotation
  JOINT LeftKnee
  {
   OFFSET 0.000000 -40.869800 0.001200
   CHANNELS 3 Yrotation Xrotation Zrotation
   JOINT LeftAnkle
   {
    OFFSET 0.000000 -39.717900 0.002100
    CHANNELS 3 Yrotation Xrotation Zrotation
    JOINT LeftToe
    {
     OFFSET 0.000000 -4.965400 11.033500
     CHANNELS 3 Yrotation Xrotation Zrotation
     End Site
     {
      OFFSET 0.000000 -1.423100 5.872300
     }
    }
   }
  }
 }
}
MOTION
Frames: 8
Frame Time: 0.008333
0.000000 85.388000 0.000000 0.000000 -5.767877 0.000000 0.000000 11.653817 0.000000 0.000000 -5.885947 0.000000 0.000000 -0.000000 0.000000 0.000000 -0.000000 0.000000 0.000000 12.528835 0.000000 0.000000 0.711642 0.000000 0.000000 -0.000000 0.000000 0.000000 0.000000 -90.000000 0.000000 -2.309062 0.000000 0.000000 2.309062 0.000000 0.000000 -0.000000 0.000000 0.000000 -0.000000 90.000000 0.000000 -2.309062 0.000000 0.000000 2.309062 0.000000 0.000000 8.520406 0.000000 0.000000 1.905762 0.000000 -0.000000 -4.658285 0.000000 0.000000 -0.000000 0.000000 0.000000 8.520406 0.000000 0.000000 1.905762 0.000000 -0.000000 -4.658285 0.000000 0.000000 -0.000000 0.000000
-28.526451 55.263072 5.661541 -177.072848 -17.750184 -1.595298 0.110900 15.965247 0.251546 0.007113 1.546067 0.037180 0.020933 2.626149 0.053761 0.123713 14.149534 0.329933 1.073063 13.571024 7.445047 -0.570395 -11.325934 7.833066 1.014150 1.416433 2.303478 0.483725 -5.552605 -7.411640 -86.335874 -64.763986 113.559978 -12.068063 -1.725143 -1.050453 -5.093696 -1.312637 1.439250 4.475324 -10.337204 7.226644 62.393622 -55.010286 -102.511456 7.834892 -7.649429 7.626038 -0.602161 -57.213052 10.667785 -87.446911 88.014975 -92.501512 -11.366236 -22.444625 13.621529 0.006522 -0.054362 0.034648 9.978318 -53.688922 -6.394835 110.413743 77.242668 107.066736 -8.299902 -24.120814 2.606503 0.041586 0.141318 0.018736
-28.526944 55.262623 5.662862 -177.072008 -17.749168 -1.597567 0.112687 15.977189 0.249733 0.010901 1.561858 0.033855 0.017219 2.606568 0.059822 0.135930 14.199346 0.321503 1.069556 13.514703 7.449865 -0.568679 -11.342986 7.833320 1.002174 1.358341 2.315149 0.481217 -5.547698 -7.412267 -86.326493 -64.766687 113.555713 -12.061944 -1.729197 -1.040919 -5.106835 -1.365044 1.459302 4.471040 -10.338683 7.226215 62.359619 -55.007677 -102.480239 7.827858 -7.665256 7.623392 -0.609715 -57.215043 10.663361 -87.436026 88.023057 -92.495545 -11.304406 -22.441350 13.604895 0.005441 -0.059617 0.030794 9.984984 -53.690843 -6.398760 110.393985 77.243456 107.051846 -8.307009 -24.115885 2.616195 0.045560 0.141189 0.012694
-28.526703 55.262262 5.664137 -177.072437 -17.748179 -1.605713 0.119544 15.991978 0.253640 0.011452 1.564518 0.033777 0.018496 2.615930 0.058604 0.141116 14.204635 0.322191 1.080625 13.500143 7.440104 -0.583823 -11.367581 7.853149 0.990207 1.332323 2.318384 0.484087 -5.552311 -7.408228 -86.307426 -64.769519 113.543997 -12.047912 -1.754981 -1.037001 -5.114583 -1.379740 1.477062 4.468283 -10.351038 7.219379 62.286405 -55.003859 -102.406596 7.824589 -7.683342 7.608101 -0.627756 -57.216082 10.678329 -87.367553 88.020913 -92.433167 -11.272330 -22.432174 13.599380 0.001642 -0.068094 0.028877 9.985314 -53.696416 -6.388214 110.405148 77.246462 107.066990 -8.315002 -24.110509 2.622597 0.044658 0.137478 0.012408
-28.529208 55.262283 5.664470 -177.074479 -17.753081 -1.598849 0.127673 16.012620 0.243342 0.011979 1.567178 0.033633 0.017889 2.621020 0.058413 0.147458 14.214395 0.321062 1.079521 13.474687 7.442978 -0.578680 -11.390705 7.848565 0.981679 1.305153 2.324617 0.480548 -5.556916 -7.406021 -86.294377 -64.770926 113.540391 -12.047172 -1.769720 -1.040118 -5.130802 -1.400712 1.494153 4.446712 -10.339659 7.219307 62.316384 -55.008968 -102.414408 7.827645 -7.670777 7.610504 -0.624928 -57.221537 10.677450 -87.714198 88.006989 -92.781196 -11.299863 -22.403561 13.605457 0.057562 -0.079169 0.031617 10.005423 -53.693751 -6.400436 110.448268 77.244397 107.103661 -8.315583 -24.105925 2.638045 0.035726 0.127915 0.009448
-28.531934 55.262502 5.664661 -177.073499 -17.757549 -1.592543 0.129700 16.024574 0.234872 0.017473 1.576502 0.030423 0.010516 2.610074 0.063364 0.159613 14.240748 0.313601 1.080364 13.451415 7.443442 -0.578650 -11.413916 7.850159 0.971053 1.279531 2.332736 0.478440 -5.557776 -7.411865 -86.303993 -64.762905 113.553958 -12.047642 -1.774557 -1.042123 -5.151003 -1.413751 1.512585 4.445785 -10.348630 7.217473 62.310683 -55.006105 -102.405954 7.837656 -7.658293 7.616587 -0.623304 -57.225234 10.681914 -88.020533 87.981092 -93.079748 -11.383146 -22.385352 13.623511 0.011162 -0.071617 0.022556 10.021575 -53.687931 -6.417395 110.451818 77.244807 107.108192 -8.313565 -24.104175 2.642604 0.034848 0.126417 0.010891
-28.533211 55.262954 5.664829 -177.070048 -17.760169 -1.595685 0.132261 16.034280 0.235219 0.022116 1.583869 0.028039 0.012292 2.616600 0.061873 0.165727 14.250208 0.313126 1.083516 13.430277 7.441293 -0.581568 -11.438575 7.853603 0.956695 1.257577 2.340289 0.485580 -5.560361 -7.415080 -86.297120 -64.760120 113.545082 -12.055035 -1.792768 -1.051747 -5.166823 -1.434371 1.529558 4.445116 -10.353890 7.215897 62.263428 -54.994890 -102.363363 7.841352 -7.660625 7.617077 -0.631633 -57.221763 10.694177 -87.946911 87.963968 -93.003030 -11.453534 -22.373454 13.647178 0.005854 -0.064465 0.015978 10.030150 -53.686495 -6.422154 110.461324 77.247996 107.124332 -8.315730 -24.101180 2.644556 0.037381 0.123343 0.012924
-28.534403 55.263875 5.664194 -177.069653 -17.766379 -1.597762 0.148906 16.060528 0.232148 0.011082 1.570190 0.035122 0.019732 2.630245 0.058157 0.169611 14.257386 0.312914 1.084295 13.408234 7.443122 -0.571113 -11.475409 7.846221 0.938037 1.250943 2.344339 0.496158 -5.577095 -7.412944 -86.285544 -64.760129 113.531345 -12.059227 -1.804488 -1.051521 -5.180195 -1.457302 1.543271 4.450559 -10.346572 7.215374 62.223428 -54.984320 -102.341962 7.832016 -7.645517 7.613210 -0.638714 -57.213474 10.694996 -87.943610 87.966831 -93.004518 -11.456505 -22.374675 13.662083 -0.006508 -0.062767 0.003955 10.028559 -53.680135 -6.418707 110.461454 77.248967 107.125510 -8.314339 -24.100320 2.644014 0.031567 0.123402 0.014174
